<?xml version="1.0" encoding="utf-8"?>
<!-- Generator: Adobe Illustrator 25.2.0, SVG Export Plug-In . SVG Version: 6.00 Build 0)  -->
<svg version="1.1" id="Layer_1" xmlns="http://www.w3.org/2000/svg" xmlns:xlink="http://www.w3.org/1999/xlink" x="0px" y="0px"
	 viewBox="0 0 1920 635" style="enable-background:new 0 0 1920 635;" xml:space="preserve">
<style type="text/css">
	.st0{display:none;}
	.st1{display:inline;fill:#EBF7F7;}
	.st2{display:inline;fill:none;}
	.st3{fill:#101010;}
</style>
<g id="Layer_2_1_" class="st0">
	<rect x="1" y="-206" class="st1" width="1920" height="1080"/>
	<line class="st2" x1="574" y1="168" x2="574" y2="466"/>
	<line class="st2" x1="1293" y1="165" x2="1293" y2="463"/>
</g>
<g id="Layer_1_1_">
	<g>
		<g>
			<path class="st3" d="M195.2,380.6c-26.2,0-50.6-4.3-73-12.8c-22.5-8.5-41.9-20.8-58.5-36.6c-16.5-15.8-29.3-34.5-38.5-55.8
				C16,254,11.3,230.5,11.3,204.9s4.6-49,13.8-70.4s22.1-39.9,38.8-55.8c16.7-15.8,36.2-28.1,58.7-36.6c22.4-8.5,46.8-12.8,73-12.8
				c29.4,0,56.1,5,80,15.2s44,25.1,60.2,44.9l-51,46.6c-11.4-13.3-24.2-23.3-38.5-30.1c-14.4-6.8-30-10.2-46.8-10.2
				c-15.8,0-30.4,2.6-43.7,8c-13.3,5.3-24.8,12.8-34.5,22.5s-17.2,21.2-22.5,34.5s-8,28-8,44.2s2.6,30.9,8,44.2s12.8,24.8,22.5,34.5
				s21.2,17.2,34.5,22.5s27.8,8,43.7,8c16.8,0,32.4-3.5,46.8-10.4c14.4-7,27.3-17.1,38.5-30.3l51,46.6
				c-16.2,19.7-36.2,34.8-60.2,45.2C251.8,375.4,224.9,380.6,195.2,380.6z"/>
			<path class="st3" d="M395.5,374.7L546.4,35.1H624l152.3,339.6h-82.4L569.2,74.9h31.6L476.1,374.7H395.5z M471.7,302l19.9-59.7
				h175.6l20.4,59.7H471.7z"/>
			<path class="st3" d="M868.6,374.7V35.1h79v275.6h169.3v64.1L868.6,374.7L868.6,374.7z"/>
			<path class="st3" d="M1303.3,374.7V236l18,47.6L1171.3,35.1h83.9l114.5,190.2h-48.1l115-190.2h76.6l-148.9,248.4l18-47.6v138.8
				L1303.3,374.7L1303.3,374.7z"/>
			<path class="st3" d="M1565.7,374.7l145.5-201.4v57.3L1572,35.1h88.7l96.5,135.8l-37.9,1l96-136.8h84.9l-138.8,192.2v-56.3
				l147,203.8h-90.7L1718,230.7h35.9l-98.5,144.1L1565.7,374.7L1565.7,374.7z"/>
		</g>
	</g>
	<g>
		<g>
			<path class="st3" d="M256.5,595V471.1h10.2l53.5,96.6h-5.3l52.9-96.6h10.2V595h-11.8V490.7h2.8l-48.7,88.5h-5.8l-49.2-88.5h3.2
				v104.2L256.5,595L256.5,595z"/>
			<path class="st3" d="M516.2,595V471.1h80.2v11.4h-67.9v101.2h70.3V595H516.2z M527.3,537.6v-11.2h61.9v11.2H527.3z"/>
			<path class="st3" d="M728.3,595V471.1h47.6c12.4,0,23.4,2.6,32.8,7.9c9.4,5.2,16.7,12.5,21.9,21.8c5.2,9.3,7.9,20.1,7.9,32.2
				c0,12.1-2.6,22.9-7.9,32.2c-5.2,9.3-12.5,16.6-21.9,21.8c-9.4,5.2-20.4,7.9-32.8,7.9L728.3,595L728.3,595z M740.6,583.6h34.6
				c10.4,0,19.3-2.1,27-6.5c7.7-4.3,13.6-10.3,17.8-17.9c4.3-7.6,6.3-16.4,6.3-26.3c0-10-2.1-18.8-6.3-26.4
				c-4.3-7.6-10.2-13.5-17.8-17.8c-7.7-4.3-16.6-6.5-27-6.5h-34.6V583.6z"/>
			<path class="st3" d="M966.5,595V471.1h12.3V595L966.5,595L966.5,595z"/>
			<path class="st3" d="M1168,596c-8.8,0-16.9-1.6-24.4-4.7c-7.5-3.1-13.9-7.5-19.4-13.2c-5.4-5.6-9.7-12.3-12.8-20
				c-3.1-7.7-4.6-16-4.6-25.1s1.6-17.5,4.6-25.1c3.1-7.7,7.4-14.4,12.8-20c5.5-5.6,12-10.1,19.4-13.2c7.5-3.1,15.6-4.7,24.4-4.7
				c8.4,0,16.4,1.5,23.9,4.5c7.5,3,13.8,7.5,18.8,13.5l-7.9,8.4c-4.8-5.1-10.1-8.9-15.8-11.3c-5.8-2.3-12-3.5-18.7-3.5
				c-7,0-13.5,1.3-19.5,3.8c-6,2.5-11.3,6.1-15.7,10.8c-4.5,4.7-8,10.1-10.5,16.3c-2.5,6.2-3.8,13-3.8,20.4s1.3,14.3,3.8,20.4
				c2.5,6.1,6,11.7,10.5,16.3c4.5,4.7,9.7,8.3,15.7,10.8c6,2.5,12.5,3.8,19.5,3.8c6.7,0,12.9-1.2,18.7-3.5
				c5.8-2.3,11.1-6.1,15.8-11.4l7.9,8.4c-5.1,6-11.5,10.6-18.8,13.6C1184.6,594.5,1176.6,596,1168,596z"/>
			<path class="st3" d="M1317.2,595l53.5-123.9h12.2l53.5,123.9h-13l-49.1-116.2h5L1330.2,595H1317.2z M1338.2,561.8l3.7-10.6h68
				l3.7,10.6H1338.2z"/>
			<path class="st3" d="M1555.9,595V471.1h12.3v112.5h65.5V595H1555.9z"/>
		</g>
	</g>
</g>
</svg>
